<svg width="256" height="256" viewBox="0 0 256 256" fill="none" xmlns="http://www.w3.org/2000/svg">
  <defs>
    <linearGradient id="pulso-gradient" x1="36" y1="28" x2="210" y2="226" gradientUnits="userSpaceOnUse">
      <stop offset="0" stop-color="#D8FFF5" />
      <stop offset="0.48" stop-color="#ABF3E7" />
      <stop offset="1" stop-color="#77D7CF" />
    </linearGradient>
    <filter id="pulso-glow" x="0" y="0" width="256" height="256" filterUnits="userSpaceOnUse" color-interpolation-filters="sRGB">
      <feFlood flood-opacity="0" result="BackgroundImageFix" />
      <feGaussianBlur in="SourceGraphic" stdDeviation="2.2" />
    </filter>
  </defs>

  <g filter="url(#pulso-glow)" opacity="0.55">
    <circle cx="24" cy="20" r="1.6" fill="#6BE4D7" />
    <circle cx="49" cy="12" r="1.6" fill="#6BE4D7" />
    <circle cx="94" cy="18" r="1.6" fill="#6BE4D7" />
    <circle cx="191" cy="31" r="1.6" fill="#6BE4D7" />
    <circle cx="230" cy="58" r="1.6" fill="#6BE4D7" />
    <circle cx="16" cy="78" r="1.6" fill="#6BE4D7" />
    <circle cx="214" cy="190" r="1.6" fill="#6BE4D7" />
    <circle cx="42" cy="222" r="1.6" fill="#6BE4D7" />
    <circle cx="168" cy="236" r="1.6" fill="#6BE4D7" />
    <circle cx="228" cy="220" r="1.6" fill="#6BE4D7" />
  </g>

  <path
    d="M36 36C36 28.268 42.268 22 50 22H186C193.732 22 200 28.268 200 36V78H164V62H74V118H120C127.732 118 134 124.268 134 132V186H50C42.268 186 36 179.732 36 172V36Z"
    fill="url(#pulso-gradient)"
  />

  <path
    d="M220 42C220 34.268 226.268 28 234 28H248V88H206V56C206 48.268 212.268 42 220 42Z"
    fill="url(#pulso-gradient)"
  />

  <path
    d="M36 204H174C181.732 204 188 197.732 188 190V162H152V168H74V146H28V196C28 200.418 31.582 204 36 204Z"
    fill="url(#pulso-gradient)"
  />

  <path
    d="M96 130.396C96 126.604 100.228 124.347 103.38 126.454L158.856 163.558C161.668 165.438 161.668 169.562 158.856 171.442L103.38 208.546C100.228 210.653 96 208.396 96 204.604V130.396Z"
    fill="#081015"
  />
</svg>
